<?xml version="1.0" standalone="no"?>
<!DOCTYPE svg PUBLIC "-//W3C//DTD SVG 20010904//EN" "http://www.w3.org/TR/2001/REC-SVG-20010904/DTD/svg10.dtd">
<!-- Created using Krita: https://krita.org -->
<svg xmlns="http://www.w3.org/2000/svg" 
    xmlns:xlink="http://www.w3.org/1999/xlink"
    xmlns:krita="http://krita.org/namespaces/svg/krita"
    xmlns:sodipodi="http://sodipodi.sourceforge.net/DTD/sodipodi-0.dtd"
    width="368.64pt"
    height="368.64pt"
    viewBox="0 0 368.64 368.64">
<defs/>
<path id="shape0" transform="matrix(1.30300883092047 0 0 1 39.8518030468599 97.4300841050741)" fill="#575757" fill-rule="evenodd" stroke="#7a7a7a" stroke-width="10.8" stroke-linecap="square" stroke-linejoin="bevel" d="M11.7616 32.94C6.08332 28.2772 17.9405 23.3044 7.86827 16.4951C-6.75763 14.1985 1.71814 10.625 11.4303 0" sodipodi:nodetypes="ccc"/><rect id="shape01" transform="translate(1768.32, 410.4)" fill="none" stroke="#a61426" stroke-width="28.8" stroke-linecap="square" stroke-linejoin="bevel" width="41.76" height="7.19999999999999"/><path id="shape1" transform="matrix(1.30300883092047 0 0 1 277.809926367883 249.170084105073)" fill="#575757" fill-rule="evenodd" stroke="#9d9d9d" stroke-width="14.4" stroke-linecap="square" stroke-linejoin="bevel" d="M0 0L0 0L0 0" sodipodi:nodetypes="ccc"/><path id="shape02" transform="matrix(1.30300883092047 0 0 1 75.9836400799121 99.7041698171734)" fill="#575757" fill-rule="evenodd" stroke="#707070" stroke-width="10.8" stroke-linecap="square" stroke-linejoin="bevel" d="M11.7616 32.94C6.08332 28.2772 17.9405 23.3044 7.86827 16.4951C-6.75763 14.1985 1.71814 10.625 11.4303 0" sodipodi:nodetypes="ccc"/><path id="shape03" transform="matrix(1.30300883092047 0 0 1 118.296186061555 98.3115783883833)" fill="#575757" fill-rule="evenodd" stroke="#9d9d9d" stroke-width="10.8" stroke-linecap="square" stroke-linejoin="bevel" d="M11.7616 32.94C6.08332 28.2772 17.9405 23.3044 7.86827 16.4951C-6.75763 14.1985 1.71814 10.625 11.4303 0" sodipodi:nodetypes="ccc"/><path id="shape011" transform="matrix(1.30300883092047 0 0 1 154.428023094607 100.585664100483)" fill="#575757" fill-rule="evenodd" stroke="#9d9d9d" stroke-width="10.8" stroke-linecap="square" stroke-linejoin="bevel" d="M11.7616 32.94C6.08332 28.2772 17.9405 23.3044 7.86827 16.4951C-6.75763 14.1985 1.71814 10.625 11.4303 0" sodipodi:nodetypes="ccc"/><path id="shape04" transform="matrix(1.30300883092047 0 0 1 191.57772785185 99.4797278167142)" fill="#575757" fill-rule="evenodd" stroke="#9d9d9d" stroke-width="10.8" stroke-linecap="square" stroke-linejoin="bevel" d="M11.7616 32.94C6.08332 28.2772 17.9405 23.3044 7.86827 16.4951C-6.75763 14.1985 1.71814 10.625 11.4303 0" sodipodi:nodetypes="ccc"/><path id="shape012" transform="matrix(1.30300883092047 0 0 1 227.709564884902 101.753813528813)" fill="#575757" fill-rule="evenodd" stroke="#635f5f" stroke-width="10.8" stroke-linecap="square" stroke-linejoin="bevel" d="M11.7616 32.94C6.08332 28.2772 17.9405 23.3044 7.86827 16.4951C-6.75763 14.1985 1.71814 10.625 11.4303 0" sodipodi:nodetypes="ccc"/><path id="shape021" transform="matrix(1.30300883092047 0 0 1 270.022110866545 100.361222100023)" fill="#575757" fill-rule="evenodd" stroke="#9d9d9d" stroke-width="10.8" stroke-linecap="square" stroke-linejoin="bevel" d="M11.7616 32.94C6.08332 28.2772 17.9405 23.3044 7.86827 16.4951C-6.75763 14.1985 1.71814 10.625 11.4303 0" sodipodi:nodetypes="ccc"/><path id="shape0111" transform="matrix(1.30300883092047 0 0 1 306.153947899597 102.635307812123)" fill="#575757" fill-rule="evenodd" stroke="#5a5a5a" stroke-width="10.8" stroke-linecap="square" stroke-linejoin="bevel" d="M11.7616 32.94C6.08332 28.2772 17.9405 23.3044 7.86827 16.4951C-6.75763 14.1985 1.71814 10.625 11.4303 0" sodipodi:nodetypes="ccc"/><path id="shape05" transform="matrix(1.30300883092047 0 0 -1 40.8584996885425 271.749915894926)" fill="#575757" fill-rule="evenodd" stroke="#757575" stroke-width="10.8" stroke-linecap="square" stroke-linejoin="bevel" d="M11.7616 32.94C6.08332 28.2772 17.9405 23.3044 7.86827 16.4951C-6.75763 14.1985 1.71814 10.625 11.4303 0" sodipodi:nodetypes="ccc"/><path id="shape013" transform="matrix(1.30300883092047 0 0 -1 76.9903367215947 269.475830182827)" fill="#575757" fill-rule="evenodd" stroke="#9d9d9d" stroke-width="10.8" stroke-linecap="square" stroke-linejoin="bevel" d="M11.7616 32.94C6.08332 28.2772 17.9405 23.3044 7.86827 16.4951C-6.75763 14.1985 1.71814 10.625 11.4303 0" sodipodi:nodetypes="ccc"/><path id="shape022" transform="matrix(1.30300883092047 0 0 -1 119.302882703237 270.868421611617)" fill="#575757" fill-rule="evenodd" stroke="#757575" stroke-width="10.8" stroke-linecap="square" stroke-linejoin="bevel" d="M11.7616 32.94C6.08332 28.2772 17.9405 23.3044 7.86827 16.4951C-6.75763 14.1985 1.71814 10.625 11.4303 0" sodipodi:nodetypes="ccc"/><path id="shape0112" transform="matrix(1.30300883092047 0 0 -1 155.434719736289 268.594335899517)" fill="#575757" fill-rule="evenodd" stroke="#9d9d9d" stroke-width="10.8" stroke-linecap="square" stroke-linejoin="bevel" d="M11.7616 32.94C6.08332 28.2772 17.9405 23.3044 7.86827 16.4951C-6.75763 14.1985 1.71814 10.625 11.4303 0" sodipodi:nodetypes="ccc"/><path id="shape031" transform="matrix(1.30300883092047 0 0 -1 192.584424493532 269.700272183286)" fill="#383838" fill-rule="evenodd" stroke="#606060" stroke-width="10.8" stroke-linecap="square" stroke-linejoin="bevel" d="M11.7616 32.94C6.08332 28.2772 17.9405 23.3044 7.86827 16.4951C-6.75763 14.1985 1.71814 10.625 11.4303 0" sodipodi:nodetypes="ccc"/><path id="shape0121" transform="matrix(1.30300883092047 0 0 -1 228.716261526584 267.426186471186)" fill="#575757" fill-rule="evenodd" stroke="#9d9d9d" stroke-width="10.8" stroke-linecap="square" stroke-linejoin="bevel" d="M11.7616 32.94C6.08332 28.2772 17.9405 23.3044 7.86827 16.4951C-6.75763 14.1985 1.71814 10.625 11.4303 0" sodipodi:nodetypes="ccc"/><path id="shape0211" transform="matrix(1.30300883092047 0 0 -1 271.028807508228 268.818777899976)" fill="#575757" fill-rule="evenodd" stroke="#9d9d9d" stroke-width="10.8" stroke-linecap="square" stroke-linejoin="bevel" d="M11.7616 32.94C6.08332 28.2772 17.9405 23.3044 7.86827 16.4951C-6.75763 14.1985 1.71814 10.625 11.4303 0" sodipodi:nodetypes="ccc"/><path id="shape01111" transform="matrix(1.30300883092047 0 0 -1 307.16064454128 266.544692187877)" fill="#575757" fill-rule="evenodd" stroke="#6b6767" stroke-width="10.8" stroke-linecap="square" stroke-linejoin="bevel" d="M11.7616 32.94C6.08332 28.2772 17.9405 23.3044 7.86827 16.4951C-6.75763 14.1985 1.71814 10.625 11.4303 0" sodipodi:nodetypes="ccc"/><rect id="shape06" transform="translate(10.08, 116.19)" fill="#525252" fill-rule="evenodd" stroke="#3f3f3f" stroke-width="7.2" stroke-linecap="square" stroke-linejoin="bevel" width="348.48" height="127.08" rx="23.939999999999" ry="23.939999999999"/><text id="shape2" krita:useRichText="true" text-rendering="auto" krita:textVersion="3" transform="translate(115.0396875, 188.195625)" fill="#c9c9c9" stroke-opacity="0" stroke="#000000" stroke-width="0" stroke-linecap="square" stroke-linejoin="bevel" letter-spacing="0" word-spacing="0" style="text-align: start;text-align-last: auto;font-family: Consolas;font-size: 36;"><tspan x="0">SIM8085</tspan></text><text id="shape3" krita:useRichText="true" text-rendering="auto" krita:textVersion="3" transform="translate(-160.919999999999, 42.6799999999998)" fill="#c9c9c9" stroke-opacity="0" stroke="#000000" stroke-width="0" stroke-linecap="square" stroke-linejoin="bevel" letter-spacing="0" style="text-align: start;text-align-last: auto;font-family: Segoe UI;font-size: 9;">Placeholder Text</text>
</svg>
