<?xml version="1.0" standalone="no"?>
<!DOCTYPE svg PUBLIC "-//W3C//DTD SVG 20010904//EN" "http://www.w3.org/TR/2001/REC-SVG-20010904/DTD/svg10.dtd">
<!-- Created using Krita: https://krita.org -->
<svg xmlns="http://www.w3.org/2000/svg" 
    xmlns:xlink="http://www.w3.org/1999/xlink"
    xmlns:krita="http://krita.org/namespaces/svg/krita"
    xmlns:sodipodi="http://sodipodi.sourceforge.net/DTD/sodipodi-0.dtd"
    width="368.64pt"
    height="368.64pt"
    viewBox="0 0 368.64 368.64">
<defs/>
<rect id="shape0" transform="translate(1768.32, 410.4)" fill="none" stroke="#a61426" stroke-width="28.8" stroke-linecap="square" stroke-linejoin="bevel" width="41.76" height="7.19999999999999"/><path id="shape1" transform="matrix(-1.18289717283548 0 0 1.18289717283548 280.259999102776 114.021376565494)" fill="#056b95" stroke="#11657c" stroke-width="28.8" stroke-linecap="square" stroke-linejoin="bevel" d="M0 0.584247C0.234647 36.0039 -1.97638 105.826 79.9767 108.104C159.819 109.645 158.184 28.3008 158.814 0" sodipodi:nodetypes="ccc"/><path id="shape2" transform="matrix(1.18289717283548 0 0 1.18289717283548 117.308003716834 106.743927737036)" fill="none" stroke="#056b95" stroke-width="14.4" stroke-linecap="square" stroke-linejoin="miter" stroke-miterlimit="2" d="M0 0.54L116.37 0" sodipodi:nodetypes="cc"/><path id="shape3" transform="matrix(1.18289717283548 0 0 1.18289717283548 136.470932643613 35.5216887226528)" fill="none" stroke="#056b95" stroke-width="14.4" stroke-linecap="square" stroke-linejoin="miter" stroke-miterlimit="2" d="M0 0L0 51.84" sodipodi:nodetypes="cc"/><path id="shape4" transform="matrix(1.18289717283548 0 0 1.18289717283548 238.673242284866 35.5216887226528)" fill="none" stroke="#056b95" stroke-width="14.4" stroke-linecap="square" stroke-linejoin="miter" stroke-miterlimit="2" d="M0 0L0 51.8428" sodipodi:nodetypes="cc"/><path id="shape5" transform="matrix(1.18289717283548 0 0 1.18289717283548 145.200718221028 28.7082035707246)" fill="none" stroke="#00a0e2" stroke-width="14.4" stroke-linecap="square" stroke-linejoin="miter" stroke-miterlimit="2" d="M0 0L0 59.7698" sodipodi:nodetypes="cc"/><path id="shape6" transform="matrix(1.18289717283548 0 0 1.18289717283548 246.125501999558 27.004831692606)" fill="none" stroke="#00a0e2" stroke-width="14.4" stroke-linecap="square" stroke-linejoin="miter" stroke-miterlimit="2" d="M0 0L0 60.8443" sodipodi:nodetypes="cc"/><path id="shape7" transform="matrix(1.18289717283548 0 0 1.18289717283548 160.179488251125 255.043747880754)" fill="none" stroke="#1c6887" stroke-width="14.4" stroke-linecap="square" stroke-linejoin="bevel" d="M28.6724 0C28.6724 26.4377 -13.9408 47.6946 4.73247 69.48C27.8203 96.4158 67.492 79.5403 70.9724 43.56" sodipodi:nodetypes="ccc"/>
</svg>
